<?xml version="1.0" encoding="iso-8859-1"?>
<svg version="1.1" width="20px" xmlns="http://www.w3.org/2000/svg" xmlns:xlink="http://www.w3.org/1999/xlink" x="0px" y="0px" viewBox="0 0 20 25" style="enable-background:new 0 0 20 25;" xml:space="preserve">
    <g>
        <g fill="#296795">
            <path class="st0" d="M19.4,3.4C19.4,3.1,19.2,3,19,3c-0.1,0-0.3,0-0.4,0.1c-0.8,0.1-1.6,0.2-2.3,0.2c-0.7,0-1.3-0.1-2-0.2
            c-0.5-0.1-1.1-0.2-1.6-0.4c-0.4-0.2-0.8-0.3-1.2-0.5c-0.3-0.2-0.6-0.3-0.9-0.5c-0.1-0.1-0.2-0.1-0.3-0.2c-0.1-0.1-0.2-0.2-0.3-0.2
            c-0.1,0-0.2,0.1-0.3,0.1C9.6,1.4,9.4,1.5,9.2,1.6C8.9,1.8,8.6,2,8.3,2.2C7.9,2.4,7.5,2.6,7.1,2.7C6.5,2.9,6,3,5.4,3.1
            c-0.7,0.1-1.3,0.1-2,0.1C2.6,3.2,1.8,3.1,1,3C0.8,3,0.6,3.1,0.6,3.4C0.5,5.4,0.1,14.1,3.2,17.9c3.2,4,6,5.6,6.7,5.9
            c0.1,0.1,0.2,0.1,0.3,0c0.7-0.3,3.5-1.9,6.7-5.9C19.9,14.1,19.6,5.4,19.4,3.4z M15,10.3l-5.6,6.2c-0.2,0.2-0.5,0.4-0.8,0.4
            c-0.2,0-0.5-0.1-0.7-0.2l-2.2-1.6c-0.5-0.4-0.6-1.1-0.2-1.6c0.4-0.5,1.1-0.6,1.6-0.2l1.3,1l4.9-5.5c0.4-0.5,1.1-0.5,1.6-0.1
            C15.4,9.1,15.5,9.8,15,10.3z"/>
        </g>
    </g>
</svg>